<?xml version="1.0" encoding="UTF-8" standalone="no"?>
<svg
   xmlns:dc="http://purl.org/dc/elements/1.1/"
   xmlns:cc="http://creativecommons.org/ns#"
   xmlns:rdf="http://www.w3.org/1999/02/22-rdf-syntax-ns#"
   xmlns:svg="http://www.w3.org/2000/svg"
   xmlns="http://www.w3.org/2000/svg"
   xmlns:sodipodi="http://sodipodi.sourceforge.net/DTD/sodipodi-0.dtd"
   xmlns:inkscape="http://www.inkscape.org/namespaces/inkscape"
   aria-hidden="true"
   focusable="false"
   data-prefix="fas"
   data-icon="child"
   class="svg-inline--fa fa-child fa-w-12"
   role="img"
   viewBox="0 0 384 512"
   version="1.1"
   id="svg22"
   sodipodi:docname="child-solid.svg"
   inkscape:version="1.0.1 (3bc2e813f5, 2020-09-07)">
  <metadata
     id="metadata28">
    <rdf:RDF>
      <cc:Work
         rdf:about="">
        <dc:format>image/svg+xml</dc:format>
        <dc:type
           rdf:resource="http://purl.org/dc/dcmitype/StillImage" />
      </cc:Work>
    </rdf:RDF>
  </metadata>
  <defs
     id="defs26" />
  <sodipodi:namedview
     pagecolor="#ffffff"
     bordercolor="#666666"
     borderopacity="1"
     objecttolerance="10"
     gridtolerance="10"
     guidetolerance="10"
     inkscape:pageopacity="0"
     inkscape:pageshadow="2"
     inkscape:window-width="2304"
     inkscape:window-height="1202"
     id="namedview24"
     showgrid="false"
     inkscape:zoom="1.96875"
     inkscape:cx="44.190476"
     inkscape:cy="253.71429"
     inkscape:window-x="-11"
     inkscape:window-y="-11"
     inkscape:window-maximized="1"
     inkscape:current-layer="svg22"
     inkscape:document-rotation="0" />
  <g
     id="g33">
    <g
       id="g27">
      <path
         fill="currentColor"
         d="m 120,72 c 0,-39.765 32.235,-72 72,-72 39.765,0 72,32.235 72,72 0,39.764 -32.235,72 -72,72 -39.765,0 -72,-32.236 -72,-72 z m 254.627,1.373 c -12.496,-12.497 -32.758,-12.497 -45.254,0 L 242.745,160 H 141.254 L 54.627,73.373 c -12.496,-12.497 -32.758,-12.497 -45.254,0 -12.497,12.497 -12.497,32.758 0,45.255 L 104,213.254 V 480 c 0,17.673 14.327,32 32,32 h 16 c 17.673,0 32,-14.327 32,-32 V 368 h 16 v 112 c 0,17.673 14.327,32 32,32 h 16 c 17.673,0 32,-14.327 32,-32 V 213.254 l 94.627,-94.627 c 12.497,-12.497 12.497,-32.757 0,-45.254 z"
         id="path20" />
      <path
         style="fill:#0065fc;stroke-width:0.507937"
         d="m 131.04762,511.41889 c -2.90521,-0.53077 -8.05591,-2.39982 -10.66667,-3.87064 -1.53651,-0.86563 -4.53428,-3.30382 -6.66172,-5.4182 -3.99261,-3.96811 -6.4334,-7.96712 -8.39225,-13.74994 -0.91212,-2.69271 -0.95081,-7.68065 -1.07945,-139.17168 L 104.11412,212.82956 54.912757,163.55764 C 7.16467,115.74107 5.6572785,114.17319 3.8792066,110.47619 1.4011276,105.32372 0.50793651,101.48837 0.50793651,96 c 0,-2.53658 0.34629313,-5.974271 0.76954029,-7.639315 C 3.9137259,77.989748 11.791153,69.548598 22.20778,65.932571 25.61141,64.751035 26.967913,64.561039 32,64.561039 c 4.990942,0 6.395831,0.193481 9.650794,1.329105 2.095238,0.731007 4.952381,1.95232 6.349206,2.714028 1.827335,0.996471 15.221313,14.043982 47.752599,46.517358 l 45.212921,45.13244 h 51.04214 51.04215 l 44.18938,-44.24499 c 31.31344,-31.352839 45.16872,-44.889553 47.55041,-46.457105 1.84857,-1.216667 5.16286,-2.837333 7.36508,-3.601479 3.46177,-1.201191 4.79516,-1.389357 9.84532,-1.389357 4.99094,0 6.39583,0.193481 9.65079,1.329105 5.73141,1.99963 8.49871,3.738831 12.7536,8.015416 6.20672,6.238371 9.08767,13.242697 9.08767,22.09444 0,5.48837 -0.89319,9.32372 -3.37127,14.47619 -1.77807,3.697 -3.28546,5.26488 -51.03355,53.08145 l -49.20136,49.27192 -0.13341,136.37887 -0.13342,136.37887 -1.35566,3.80953 c -2.04101,5.73543 -3.78137,8.50232 -8.00917,12.73322 -4.25776,4.26087 -7.65689,6.40151 -12.98438,8.17703 -3.37348,1.1243 -4.25785,1.18498 -17.26984,1.18498 -13.01199,0 -13.89636,-0.0607 -17.26984,-1.18498 -5.31431,-1.77113 -8.71749,-3.90994 -13.01093,-8.17703 -3.99629,-3.97177 -6.44508,-7.98623 -8.38735,-13.74994 -0.89119,-2.6446 -0.94889,-5.91289 -1.08727,-61.58646 L 200.09847,368 H 192 183.90153 l -0.14124,58.79365 -0.14124,58.79365 -1.35566,3.80953 c -2.04101,5.73543 -3.78137,8.50232 -8.00917,12.73322 -4.15525,4.15829 -7.56,6.33423 -12.73041,8.13586 -3.05242,1.06362 -4.27908,1.1593 -16.25397,1.26771 -7.12381,0.0645 -13.52381,0.0129 -14.22222,-0.11473 z"
         id="path30" />
      <path
         style="fill:#0065fc;stroke-width:0.507937"
         d="m 188.95238,143.62315 c -30.4959,-1.34136 -57.30847,-22.41148 -65.76564,-51.680603 -2.31388,-8.00803 -2.93869,-13.319045 -2.62997,-22.355245 0.3932,-11.508973 2.4222,-19.713047 7.25686,-29.342386 10.09055,-20.097647 27.82137,-33.7397965 50.12242,-38.5643386 7.41601,-1.604359 20.71189,-1.604359 28.1279,0 28.50948,6.1676557 49.55476,26.9572476 56.09848,55.4169206 1.43384,6.235972 1.81824,19.036496 0.76421,25.448224 -2.62881,15.991309 -9.18997,28.774328 -20.60064,40.135968 -7.75986,7.72652 -14.61663,12.24325 -24.61687,16.21577 -8.36029,3.32106 -19.40956,5.13683 -28.75675,4.72569 z"
         id="path39" />
    </g>
  </g>
</svg>
