<?xml version="1.0" encoding="UTF-8" standalone="no"?>
<svg
   xmlns:dc="http://purl.org/dc/elements/1.1/"
   xmlns:cc="http://creativecommons.org/ns#"
   xmlns:rdf="http://www.w3.org/1999/02/22-rdf-syntax-ns#"
   xmlns:svg="http://www.w3.org/2000/svg"
   xmlns="http://www.w3.org/2000/svg"
   xmlns:sodipodi="http://sodipodi.sourceforge.net/DTD/sodipodi-0.dtd"
   xmlns:inkscape="http://www.inkscape.org/namespaces/inkscape"
   aria-hidden="true"
   focusable="false"
   data-prefix="fas"
   data-icon="dog"
   class="svg-inline--fa fa-dog fa-w-18"
   role="img"
   viewBox="0 0 576 512"
   version="1.1"
   id="svg22"
   sodipodi:docname="dog-solid.svg"
   inkscape:version="1.0.1 (3bc2e813f5, 2020-09-07)">
  <metadata
     id="metadata28">
    <rdf:RDF>
      <cc:Work
         rdf:about="">
        <dc:format>image/svg+xml</dc:format>
        <dc:type
           rdf:resource="http://purl.org/dc/dcmitype/StillImage" />
      </cc:Work>
    </rdf:RDF>
  </metadata>
  <defs
     id="defs26" />
  <sodipodi:namedview
     pagecolor="#ffffff"
     bordercolor="#666666"
     borderopacity="1"
     objecttolerance="10"
     gridtolerance="10"
     guidetolerance="10"
     inkscape:pageopacity="0"
     inkscape:pageshadow="2"
     inkscape:window-width="3440"
     inkscape:window-height="1346"
     id="namedview24"
     showgrid="false"
     inkscape:zoom="2.1992188"
     inkscape:cx="288"
     inkscape:cy="253.95382"
     inkscape:window-x="3829"
     inkscape:window-y="181"
     inkscape:window-maximized="1"
     inkscape:current-layer="svg22"
     inkscape:document-rotation="0" />
  <path
     fill="currentColor"
     d="M298.06,224,448,277.55V496a16,16,0,0,1-16,16H368a16,16,0,0,1-16-16V384H192V496a16,16,0,0,1-16,16H112a16,16,0,0,1-16-16V282.09C58.84,268.84,32,233.66,32,192a32,32,0,0,1,64,0,32.06,32.06,0,0,0,32,32ZM544,112v32a64,64,0,0,1-64,64H448v35.58L320,197.87V48c0-14.25,17.22-21.39,27.31-11.31L374.59,64h53.63c10.91,0,23.75,7.92,28.62,17.69L464,96h64A16,16,0,0,1,544,112Zm-112,0a16,16,0,1,0-16,16A16,16,0,0,0,432,112Z"
     id="path20" />
  <path
     style="fill:#000000;fill-opacity:1;stroke-width:0.454707"
     d="m 107.41913,511.06704 c -3.11235,-0.9684 -6.30822,-3.35764 -8.224978,-6.149 -3.317828,-4.83174 -3.080475,4.06927 -3.080475,-115.52183 V 281.76147 l -1.705151,-0.54879 c -2.522396,-0.81182 -10.331874,-4.5356 -14.220195,-6.78059 -29.778679,-17.19325 -48.607848,-49.85005 -47.6343,-82.61562 0.182607,-6.14578 0.3248,-7.08112 1.586708,-10.43733 2.406664,-6.40083 6.080631,-11.26806 11.336647,-15.01868 17.720295,-12.64494 41.988488,-4.58522 48.792136,16.20437 0.60381,1.84504 1.135348,5.17671 1.41462,8.86679 0.55412,7.32174 1.276117,10.30137 3.691057,15.23268 1.541001,3.14672 2.660251,4.62954 6.022541,7.97886 3.33429,3.32141 4.87429,4.479 7.9948,6.00951 7.74867,3.80045 -1.06272,3.47232 97.4031,3.62735 l 87.62689,0.13798 72.6573,25.96136 c 39.96151,14.27875 73.52692,26.26362 74.5898,26.63303 l 1.9325,0.67167 V 388.3454 499.00674 l -0.94151,2.51643 c -1.2459,3.32994 -4.73527,7.1158 -8.06616,8.75153 l -2.58736,1.27059 -34.96301,0.12727 c -38.68794,0.14081 -37.57647,0.2143 -41.94214,-2.77284 -1.21761,-0.83313 -2.97613,-2.62489 -3.9078,-3.98168 -3.23223,-4.70709 -3.08047,-1.53443 -3.08047,-64.40256 V 384 H 271.8579 191.60213 v 57.50337 c 0,57.04357 -0.008,57.52349 -0.94151,60.0198 -1.2459,3.32994 -4.73527,7.1158 -8.06616,8.75153 l -2.58736,1.27059 -35.23978,0.0889 c -29.60724,0.0747 -35.57679,-0.016 -37.34819,-0.56714 z"
     id="path30" />
  <path
     style="fill:#000000;fill-opacity:1;stroke-width:0.454707"
     d="m 383.71581,220.38464 -63.20426,-22.60273 -0.11502,-75.92096 c -0.12684,-83.725088 -0.30602,-78.281276 2.72562,-82.807682 1.91495,-2.859121 5.69616,-5.415877 9.38784,-6.34781 3.29121,-0.83084 5.65881,-0.628104 9.58227,0.820527 2.27992,0.841798 3.94207,2.345368 17.52898,15.856584 l 15.01022,14.926603 29.55106,0.135028 29.55105,0.135028 3.36939,1.242683 c 4.07735,1.503787 7.58535,3.438898 11.03081,6.084885 4.57191,3.51108 6.50459,6.185508 11.20076,15.499543 l 4.40777,8.742041 33.87663,0.124744 33.87663,0.124745 2.86078,1.321005 c 3.57896,1.652632 6.90065,5.157816 8.3372,8.797746 0.9843,2.49405 1.03935,3.30671 1.20865,17.84572 0.18718,16.07446 -0.32309,27.08584 -1.51714,32.7389 -4.6258,21.90035 -21.34803,40.5301 -42.6061,47.4662 -8.1427,2.65682 -8.49518,2.68945 -31.14662,2.88347 l -21.0302,0.18014 v 17.7049 c 0,9.7377 -0.15346,17.69287 -0.34103,17.67816 -0.18757,-0.0147 -28.78295,-10.19797 -63.54529,-22.62947 z m 38.17681,-93.32616 c 3.32995,-1.24589 7.11587,-4.73532 8.75156,-8.06618 1.12021,-2.28116 1.27056,-3.09849 1.27056,-6.90704 0,-3.74449 -0.16371,-4.66909 -1.22943,-6.94334 -1.62224,-3.46188 -5.08049,-6.794768 -8.42784,-8.122335 -3.89416,-1.544435 -9.42278,-1.479976 -12.94007,0.150872 -3.29613,1.528301 -6.46522,4.692193 -8.01799,8.004843 -1.04876,2.23739 -1.21415,3.17869 -1.21415,6.90996 0,3.77565 0.15493,4.6347 1.23009,6.8206 1.67184,3.39898 5.02603,6.59734 8.35322,7.96515 3.56516,1.46563 8.60143,1.54287 12.22405,0.18747 z"
     id="path32" />
  <path
     style="fill:#000000;fill-opacity:1;stroke-width:0.454707"
     d="m 107.41913,511.06704 c -3.11235,-0.9684 -6.30822,-3.35764 -8.224978,-6.149 -3.317805,-4.83171 -3.080475,4.06644 -3.080475,-115.49616 V 281.81279 l -2.636196,-0.9612 c -1.449905,-0.52866 -4.685482,-1.96335 -7.190166,-3.1882 -26.394823,-12.90767 -45.499621,-36.97425 -51.723568,-65.15689 -1.703754,-7.71476 -2.23327,-13.16614 -2.009716,-20.69003 0.182607,-6.14578 0.3248,-7.08112 1.586708,-10.43733 2.406664,-6.40083 6.080631,-11.26806 11.336647,-15.01868 17.720295,-12.64494 41.988488,-4.58522 48.792136,16.20437 0.60381,1.84504 1.135348,5.17671 1.41462,8.86679 0.55412,7.32174 1.276117,10.30137 3.691057,15.23268 1.541001,3.14672 2.660251,4.62954 6.022541,7.97886 3.33429,3.32141 4.87429,4.479 7.9948,6.00951 7.6505,3.75231 -0.94268,3.43272 97.49068,3.62575 l 87.71449,0.172 73.25177,26.17066 c 40.28847,14.39385 73.81446,26.37221 74.50221,26.61855 l 1.25044,0.44791 v 110.6596 110.6596 l -0.94151,2.51643 c -1.2459,3.32994 -4.73527,7.1158 -8.06616,8.75153 l -2.58736,1.27059 -34.96301,0.12727 c -38.68794,0.14081 -37.57647,0.2143 -41.94214,-2.77284 -1.21761,-0.83313 -2.97613,-2.62489 -3.9078,-3.98168 -3.23223,-4.70709 -3.08047,-1.53443 -3.08047,-64.40256 V 384 H 271.8579 191.60213 v 57.50337 c 0,57.04357 -0.008,57.52349 -0.94151,60.0198 -1.2459,3.32994 -4.73527,7.1158 -8.06616,8.75153 l -2.58736,1.27059 -35.23978,0.0889 c -29.60724,0.0747 -35.57679,-0.016 -37.34819,-0.56714 z"
     id="path34" />
  <path
     style="fill:#0065fc;fill-opacity:1;stroke-width:0.454707"
     d="m 383.71581,220.38464 -63.20426,-22.60273 -0.11502,-75.92096 c -0.12684,-83.725088 -0.30602,-78.281276 2.72562,-82.807682 1.92572,-2.875202 5.69378,-5.414923 9.43913,-6.362086 2.48963,-0.629604 3.41357,-0.663231 5.8605,-0.213295 1.59769,0.293781 3.74618,0.956672 4.77442,1.473091 1.14951,0.577328 7.56684,6.610193 16.66276,15.664497 l 14.79324,14.725555 28.40392,0.0067 c 31.71867,0.0075 31.39306,-0.01958 37.95276,3.156272 4.39296,2.12683 8.89457,5.46581 11.78213,8.739164 1.41455,1.603553 3.62417,5.373123 6.54352,11.163152 l 4.40777,8.742041 33.87663,0.124744 33.87663,0.124745 2.83478,1.309337 c 3.11768,1.440007 6.26837,4.455575 7.80765,7.472805 1.50978,2.95942 1.84428,7.06714 1.83974,22.59264 -0.006,21.95057 -0.75925,28.93147 -4.10219,38.03929 -6.61359,18.0187 -21.9382,32.83076 -40.09659,38.7555 -8.1427,2.65682 -8.49518,2.68945 -31.14662,2.88347 l -21.0302,0.18014 v 17.7049 c 0,9.7377 -0.15346,17.69287 -0.34103,17.67816 -0.18757,-0.0147 -28.78295,-10.19797 -63.54529,-22.62947 z m 38.17681,-93.32616 c 3.32995,-1.24589 7.11587,-4.73532 8.75156,-8.06618 1.12021,-2.28116 1.27056,-3.09849 1.27056,-6.90704 0,-3.73127 -0.16539,-4.67257 -1.21415,-6.90996 -2.32868,-4.96795 -6.66596,-8.1511 -12.45845,-9.143311 -7.63038,-1.307028 -15.54029,3.774917 -17.75999,11.410421 -1.0501,3.6122 -0.67452,8.3759 0.9168,11.62844 1.54475,3.15735 5.41234,6.74819 8.57935,7.96544 3.30604,1.2707 8.55128,1.28047 11.91432,0.0222 z"
     id="path36" />
  <path
     style="fill:#0065fc;fill-opacity:1;stroke-width:0.454707"
     d="m 107.41913,511.06704 c -3.11235,-0.9684 -6.30822,-3.35764 -8.224978,-6.149 -3.317805,-4.83171 -3.080475,4.06644 -3.080475,-115.49616 V 281.81279 l -2.636196,-0.9612 c -3.946692,-1.43904 -11.218988,-5.09035 -15.876456,-7.97135 -16.723283,-10.3446 -30.797888,-26.77692 -38.020904,-44.39001 -5.093375,-12.42003 -7.390474,-24.41009 -7.02609,-36.67376 0.182607,-6.14578 0.3248,-7.08112 1.586708,-10.43733 3.639478,-9.67965 10.617526,-16.36077 20.597681,-19.72119 4.555041,-1.53373 11.464527,-1.75569 16.373389,-0.52596 7.532159,1.88688 14.302496,6.31397 18.314729,11.97592 4.232608,5.97293 5.638071,10.06448 6.258741,18.22033 0.557957,7.3318 1.292468,10.34419 3.73685,15.32564 1.506721,3.07056 2.680611,4.64286 5.771331,7.73002 4.31676,4.31178 7.41054,6.32856 12.36665,8.0616 3.03416,1.06098 4.27875,1.19941 13.79335,1.53409 5.75205,0.20234 45.702,0.37922 88.77768,0.39308 l 78.3194,0.0252 73.32536,26.19693 c 40.32893,14.40831 73.88804,26.39849 74.57579,26.64483 l 1.25044,0.44791 v 110.6596 110.6596 l -0.94151,2.51643 c -1.2459,3.32995 -4.73533,7.11587 -8.06619,8.75156 l -2.58733,1.27056 -34.96301,0.12727 c -38.68794,0.14081 -37.57647,0.2143 -41.94214,-2.77284 -1.21761,-0.83313 -2.97613,-2.62489 -3.9078,-3.98168 -3.23223,-4.70709 -3.08047,-1.53443 -3.08047,-64.40256 V 384 H 271.8579 191.60213 v 57.50337 c 0,57.04357 -0.008,57.52349 -0.94151,60.0198 -1.2459,3.32995 -4.73533,7.11587 -8.06619,8.75156 l -2.58733,1.27056 -35.23978,0.0889 c -29.60724,0.0747 -35.57679,-0.016 -37.34819,-0.56714 z"
     id="path48" />
</svg>
