<?xml version="1.0" encoding="UTF-8" standalone="no"?>
<svg
   xmlns:dc="http://purl.org/dc/elements/1.1/"
   xmlns:cc="http://creativecommons.org/ns#"
   xmlns:rdf="http://www.w3.org/1999/02/22-rdf-syntax-ns#"
   xmlns:svg="http://www.w3.org/2000/svg"
   xmlns="http://www.w3.org/2000/svg"
   xmlns:sodipodi="http://sodipodi.sourceforge.net/DTD/sodipodi-0.dtd"
   xmlns:inkscape="http://www.inkscape.org/namespaces/inkscape"
   aria-hidden="true"
   focusable="false"
   data-prefix="fas"
   data-icon="heart"
   class="svg-inline--fa fa-heart fa-w-16"
   role="img"
   viewBox="0 0 512 512"
   version="1.1"
   id="svg22"
   sodipodi:docname="heart-solid.svg"
   inkscape:version="1.0.1 (3bc2e813f5, 2020-09-07)">
  <metadata
     id="metadata28">
    <rdf:RDF>
      <cc:Work
         rdf:about="">
        <dc:format>image/svg+xml</dc:format>
        <dc:type
           rdf:resource="http://purl.org/dc/dcmitype/StillImage" />
      </cc:Work>
    </rdf:RDF>
  </metadata>
  <defs
     id="defs26" />
  <sodipodi:namedview
     pagecolor="#ffffff"
     bordercolor="#666666"
     borderopacity="1"
     objecttolerance="10"
     gridtolerance="10"
     guidetolerance="10"
     inkscape:pageopacity="0"
     inkscape:pageshadow="2"
     inkscape:window-width="3440"
     inkscape:window-height="1346"
     id="namedview24"
     showgrid="false"
     inkscape:zoom="2.1992188"
     inkscape:cx="163.01243"
     inkscape:cy="253.95382"
     inkscape:window-x="3829"
     inkscape:window-y="181"
     inkscape:window-maximized="1"
     inkscape:current-layer="svg22"
     inkscape:document-rotation="0" />
  <path
     fill="currentColor"
     d="M462.3 62.6C407.5 15.9 326 24.3 275.7 76.2L256 96.5l-19.7-20.3C186.1 24.3 104.5 15.9 49.7 62.6c-62.8 53.6-66.1 149.8-9.9 207.9l193.5 199.8c12.5 12.9 32.8 12.9 45.3 0l193.5-199.8c56.3-58.1 53-154.3-9.8-207.9z"
     id="path20" />
  <path
     style="fill:#8080ff;stroke-width:0.454707;fill-opacity:1"
     d="m 251.98095,479.46561 c -4.93645,-0.66039 -9.91558,-2.63525 -14.13718,-5.6072 C 234.92144,471.80114 37.502141,267.89662 32.41744,261.68384 14.639551,239.96177 4.0204654,214.23006 0.89213622,185.29307 0.23066982,179.17452 0.2289021,163.78873 0.88892326,157.3286 3.8281603,128.56002 14.751319,102.04431 32.56054,80.446472 36.446917,75.733334 45.152721,66.921013 50.017762,62.775655 78.321831,38.658596 115.89521,28.080197 153.38202,33.674511 c 21.6813,3.235592 42.96526,11.717329 61.09593,24.346952 8.40685,5.856125 13.08827,10.036706 27.08511,24.187449 L 256,96.804604 270.43694,82.221848 C 284.96811,67.543916 289.32623,63.69541 298.5151,57.426939 340.90719,28.507887 393.37005,24.148374 436.51865,45.95924 c 14.45202,7.305244 25.82017,15.907858 37.52123,28.393458 20.52034,21.896209 33.42033,50.428942 36.88356,81.580852 0.98898,8.89575 0.64745,27.60657 -0.65651,35.9671 -4.19785,26.91526 -14.90275,50.93266 -31.55989,70.80715 -5.77482,6.89027 -201.84959,209.04684 -204.79924,211.15166 -6.37083,4.54614 -14.4362,6.60825 -21.92685,5.60615 z"
     id="path30" />
  <path
     style="fill:#80ff80;fill-opacity:1;stroke-width:0.454707"
     d="m 249.86146,478.85154 c -3.63997,-0.83452 -7.89681,-2.59969 -10.30905,-4.27482 -2.77138,-1.92453 -21.4374,-20.89045 -79.97039,-81.25523 C 125.22595,357.89025 98.627356,330.37319 73.871092,304.6509 29.545253,258.59543 30.749306,259.9266 23.649867,249.12717 7.7194331,224.89431 -0.45334669,195.20691 0.69401914,165.74067 1.8763908,135.37544 12.493591,106.33184 30.982472,82.885902 36.445155,75.958622 49.168351,63.510331 56.036799,58.372914 86.880184,35.302885 125.4531,27.244746 163.65658,35.890426 c 21.57383,4.88229 42.98697,15.376641 59.665,29.241175 2.59267,2.1553 11.00591,10.25991 18.69609,18.010247 l 13.98214,14.091517 13.98689,-14.058956 c 15.99554,-16.077952 20.21303,-19.761165 30.34723,-26.502784 18.20976,-12.113769 37.23746,-19.464949 59.33354,-22.922983 9.10164,-1.424406 28.35595,-1.396254 37.68072,0.05509 22.32263,3.474391 42.68539,12.229082 60.54169,26.029071 5.254,4.060492 15.69148,14.173971 20.35672,19.72487 17.66414,21.017437 28.79782,46.885487 32.2008,74.815327 1.08139,8.87566 0.69939,31.00943 -0.67305,38.99652 -4.36737,25.41632 -14.16303,47.76982 -29.06523,66.32637 -4.53803,5.65087 -22.59544,24.48279 -102.83776,107.24858 -87.40942,90.15829 -103.1739,106.16335 -106.52879,108.15454 -6.12511,3.63535 -15.1305,5.2085 -21.48111,3.75253 z"
     id="path46" />
  <path
     style="fill:#0065fc;fill-opacity:1;stroke-width:0.454707"
     d="m 248.72469,478.30956 c -1.37549,-0.36539 -4.03552,-1.38327 -5.91119,-2.26197 -3.22551,-1.51105 -4.21109,-2.40356 -18.18854,-16.47092 C 195.64358,430.40886 59.055703,289.29573 37.926608,266.69287 24.023718,251.82024 14.018783,234.70805 7.7496006,215.07887 -6.7476371,169.68717 2.1443391,119.81281 31.300468,82.984014 35.44173,77.752947 46.822109,66.292124 52.746004,61.386888 61.1452,54.431998 73.137599,47.238337 83.733148,42.799195 119.84434,27.66995 161.21282,29.805538 197.68802,48.681953 c 17.11226,8.855826 25.85313,15.892128 48.409,38.968691 l 9.87677,10.10477 12.85858,-12.960539 c 7.07221,-7.128299 14.97459,-14.835016 17.56083,-17.126037 21.14047,-18.727294 51.42336,-31.837678 79.19117,-34.284266 7.79517,-0.686824 25.79325,-0.298782 32.05684,0.69115 21.67252,3.425244 42.74801,12.554385 60.24867,26.097551 5.42247,4.196257 19.60127,18.514238 23.71478,23.947509 12.48598,16.492068 20.54652,33.377858 25.37519,53.157758 3.21283,13.16096 3.42868,15.29607 3.42868,33.91862 0,18.17213 -0.14387,19.78276 -2.80236,31.37478 -5.55416,24.21788 -16.78701,46.09204 -32.25187,62.80505 -14.00019,15.13018 -132.20501,137.26618 -177.52126,183.42519 -20.43745,20.81752 -25.1751,25.29624 -28.57326,27.01162 -5.82141,2.93865 -14.77254,4.02653 -20.53509,2.49576 z"
     id="path48" />
</svg>
