<?xml version="1.0" encoding="UTF-8" standalone="no"?>
<svg
   xmlns:dc="http://purl.org/dc/elements/1.1/"
   xmlns:cc="http://creativecommons.org/ns#"
   xmlns:rdf="http://www.w3.org/1999/02/22-rdf-syntax-ns#"
   xmlns:svg="http://www.w3.org/2000/svg"
   xmlns="http://www.w3.org/2000/svg"
   xmlns:sodipodi="http://sodipodi.sourceforge.net/DTD/sodipodi-0.dtd"
   xmlns:inkscape="http://www.inkscape.org/namespaces/inkscape"
   height="511pt"
   viewBox="0 -10 511.98685 511"
   width="511pt"
   version="1.1"
   id="svg22"
   sodipodi:docname="stargrey.svg"
   inkscape:version="1.0.1 (3bc2e813f5, 2020-09-07)">
  <metadata
     id="metadata28">
    <rdf:RDF>
      <cc:Work
         rdf:about="">
        <dc:format>image/svg+xml</dc:format>
        <dc:type
           rdf:resource="http://purl.org/dc/dcmitype/StillImage" />
        <dc:title></dc:title>
      </cc:Work>
    </rdf:RDF>
  </metadata>
  <defs
     id="defs26" />
  <sodipodi:namedview
     pagecolor="#ffffff"
     bordercolor="#666666"
     borderopacity="1"
     objecttolerance="10"
     gridtolerance="10"
     guidetolerance="10"
     inkscape:pageopacity="0"
     inkscape:pageshadow="2"
     inkscape:window-width="3440"
     inkscape:window-height="1346"
     id="namedview24"
     showgrid="false"
     inkscape:zoom="1.6526419"
     inkscape:cx="516.74837"
     inkscape:cy="337.94375"
     inkscape:window-x="3829"
     inkscape:window-y="181"
     inkscape:window-maximized="1"
     inkscape:current-layer="svg22"
     inkscape:document-rotation="0" />
  <path
     d="m510.652344 185.902344c-3.351563-10.367188-12.546875-17.730469-23.425782-18.710938l-147.773437-13.417968-58.433594-136.769532c-4.308593-10.023437-14.121093-16.511718-25.023437-16.511718s-20.714844 6.488281-25.023438 16.535156l-58.433594 136.746094-147.796874 13.417968c-10.859376 1.003906-20.03125 8.34375-23.402344 18.710938-3.371094 10.367187-.257813 21.738281 7.957031 28.90625l111.699219 97.960937-32.9375 145.089844c-2.410156 10.667969 1.730468 21.695313 10.582031 28.09375 4.757813 3.4375 10.324219 5.1875 15.9375 5.1875 4.839844 0 9.640625-1.304687 13.949219-3.882813l127.46875-76.183593 127.421875 76.183593c9.324219 5.609376 21.078125 5.097657 29.910156-1.304687 8.855469-6.417969 12.992187-17.449219 10.582031-28.09375l-32.9375-145.089844 111.699219-97.941406c8.214844-7.1875 11.351563-18.539063 7.980469-28.925781zm0 0"
     fill="#ffc107"
     id="path20" />
  <path
     style="fill:#ffffff;stroke-width:0.605092"
     d="m 143.75263,666.15098 c -7.15396,-1.92323 -14.79836,-6.86423 -19.29739,-12.47288 -5.03514,-6.27704 -8.36769,-16.66096 -7.76773,-24.20355 0.17747,-2.2311 10.2823,-47.92734 22.45518,-101.54719 12.17288,-53.61984 21.98409,-97.73075 21.80271,-98.02425 -0.18139,-0.29349 -34.31608,-30.34328 -75.854878,-66.77732 C 2.6395694,290.80735 5.6895176,293.7206 2.3325497,284.07693 -3.4798238,267.37954 4.2214728,248.55618 20.09257,240.66825 c 2.730901,-1.35726 6.406834,-2.76391 8.168739,-3.12589 1.761905,-0.36197 47.807912,-4.7118 102.324451,-9.66628 54.51655,-4.95448 99.20481,-9.10485 99.30725,-9.22305 0.10243,-0.1182 17.67827,-41.19474 39.05741,-91.28121 21.37915,-50.086474 39.58463,-92.42777 40.45664,-94.091773 2.54325,-4.85314 9.89761,-11.825417 15.22467,-14.433695 10.62664,-5.203094 21.44323,-5.203094 32.06987,0 5.32262,2.606103 12.67449,9.573547 15.23006,14.433695 0.87497,1.664003 19.08437,44.005299 40.46534,94.091773 21.38098,50.08647 38.95439,91.16301 39.05203,91.28121 0.0976,0.1182 44.78199,4.26857 99.29854,9.22305 54.51653,4.95448 100.56256,9.30431 102.32447,9.66628 1.7619,0.36198 5.43784,1.76863 8.16874,3.12589 15.83628,7.87062 23.55961,26.74793 17.75999,43.40868 -3.37944,9.7083 -0.29698,6.76339 -82.79109,79.09722 -41.51965,36.40595 -75.64285,66.43951 -75.82932,66.74123 -0.18647,0.30172 9.66023,44.46879 21.88158,98.14905 20.83863,91.5303 22.22041,97.95795 22.21723,103.34883 -0.01,16.81647 -11.29546,30.95765 -27.80186,34.83677 -5.83467,1.37114 -14.3377,0.91169 -19.62639,-1.06061 -2.26629,-0.84519 -40.33039,-23.22874 -89.81824,-52.81763 -47.23683,-28.24298 -86.18804,-51.35087 -86.55825,-51.35087 -0.37021,0 -38.64419,22.69741 -85.05328,50.43869 -46.4091,27.7413 -85.87778,51.18431 -87.70818,52.09558 -6.98241,3.47632 -16.91534,4.54352 -24.16034,2.59579 z"
     id="path30"
     transform="matrix(0.75144843,0,0,0.75144843,0,-10.493425)" />
  <path
     style="fill:#ffffff;stroke-width:0.605092"
     d="m 143.0869,665.69867 c -9.02495,-2.95648 -18.37942,-10.64205 -21.88634,-17.98182 -2.77568,-5.8093 -3.99801,-10.57585 -4.02569,-15.6985 -0.0273,-5.04822 0.18564,-6.04196 22.68856,-105.89106 17.11158,-75.92683 21.09098,-93.93962 21.09098,-95.46838 0,-1.33055 -4.11868,-5.01696 -82.29248,-73.65564 C 18.747203,304.39653 10.285449,296.70812 6.2467036,291.20625 3.6149109,287.62103 1.303725,280.61197 0.83633576,274.7984 -0.34960025,260.04728 9.6449504,244.78856 24.115436,239.25811 c 4.319648,-1.65092 5.288196,-1.75162 106.965554,-11.12141 92.25386,-8.50139 98.80058,-9.12653 99.08607,-9.46157 0.11107,-0.13035 17.97494,-41.76142 39.69749,-92.5135 21.72254,-50.752068 40.26453,-93.396856 41.20441,-94.766193 2.70259,-3.937481 10.02981,-10.345051 14.08644,-12.318433 10.06258,-4.895033 20.95995,-4.895033 31.02253,0 4.06085,1.975433 11.39098,8.387578 14.08198,12.318433 0.93744,1.369337 19.48507,44.014125 41.21696,94.766193 21.73189,50.75208 39.60217,92.38756 39.71173,92.52329 0.2426,0.30056 21.55808,2.32962 111.62425,10.62571 88.13671,8.11836 90.16764,8.33241 94.40503,9.94945 14.42352,5.5042 24.46175,20.82867 23.2791,35.53832 -0.46913,5.83531 -2.78125,12.8263 -5.43984,16.44802 -4.26777,5.81388 -11.7795,12.60289 -87.81558,79.36697 -69.11812,60.68969 -66.86264,58.65982 -66.86264,60.17473 0,1.3897 8.12907,38.00087 22.37811,100.785 19.6153,86.42902 21.1885,93.88229 21.1885,100.38351 0,15.45175 -10.51,29.04005 -25.9775,33.58605 -4.04399,1.18852 -13.69777,1.27904 -17.97877,0.16858 -4.05676,-1.05232 -16.48552,-8.27603 -104.30419,-60.62242 -27.46317,-16.37008 -55.57949,-33.09243 -62.48072,-37.16078 l -12.54768,-7.39699 -15.57611,9.21449 c -8.56687,5.06796 -42.39681,25.1988 -75.17766,44.7352 -77.99107,46.48034 -81.85435,48.74345 -85.85207,50.29285 -4.26068,1.65123 -17.02737,2.21457 -20.96393,0.92506 z"
     id="path32"
     transform="matrix(0.75144843,0,0,0.75144843,0,-10.493425)" />
  <path
     style="fill:#f9f9f9;stroke-width:0.605092"
     d="m 143.0869,665.66388 c -7.74463,-2.42654 -16.70234,-9.14929 -20.48246,-15.372 -2.56644,-4.22487 -4.96584,-11.27606 -5.49748,-16.1557 -0.51221,-4.70127 0.57939,-9.83892 26.6129,-125.254 12.88457,-57.12154 17.23455,-76.87862 17.23455,-78.27723 0,-1.2345 -1.84279,-2.88548 -72.00592,-64.51093 C 18.420507,304.14811 10.907099,297.35216 6.5040304,291.52224 3.6478352,287.74046 1.3260336,280.88946 0.83633576,274.7984 -0.34960025,260.04728 9.6449504,244.78856 24.115436,239.25811 c 4.267498,-1.63098 6.55185,-1.87191 94.180004,-9.9332 89.4911,-8.23267 111.6054,-10.33644 111.84442,-10.63999 0.10688,-0.13573 17.97811,-41.77121 39.71383,-92.52329 21.73573,-50.752068 40.28555,-93.396856 41.22182,-94.766193 2.68559,-3.927755 10.01707,-10.342036 14.07989,-12.318433 10.06258,-4.895033 20.95995,-4.895033 31.02253,0 4.07882,1.984177 11.42078,8.415358 14.06298,12.318433 1.87268,2.766349 8.91883,18.996517 51.51816,118.667323 16.073,37.60645 29.30675,68.47839 29.40832,68.6043 0.21259,0.26352 14.82635,1.67853 66.18607,6.40863 53.6894,4.94465 106.82006,9.85863 121.3209,11.2208 18.45222,1.73335 23.34463,3.52306 31.21717,11.41963 9.75771,9.78756 12.96331,22.452 8.98465,35.49595 -2.96719,9.72782 -0.99181,7.83467 -86.79388,83.17882 -70.16939,61.61682 -71.70338,62.99036 -71.70338,64.20301 0,1.71212 7.53076,35.49901 29.00698,130.14035 12.44896,54.86006 14.08139,62.69943 14.40363,69.17009 0.22234,4.46492 0.0401,7.07504 -0.69391,9.94033 -3.03246,11.83681 -11.40738,20.90883 -23.04115,24.95901 -4.06564,1.41537 -5.83022,1.68766 -10.90172,1.68203 -3.328,-0.006 -7.27623,-0.28596 -8.77383,-0.6273 -4.06566,-0.92663 -12.45459,-5.79508 -106.7987,-61.97989 -30.28484,-18.03555 -59.0664,-35.15241 -63.95902,-38.03745 l -8.89569,-5.24553 -8.95452,5.24336 c -4.92499,2.88385 -26.78961,15.86855 -48.58804,28.85488 -125.49251,74.76172 -116.31563,69.42596 -121.90185,70.87764 -4.34933,1.13025 -14.71388,1.18289 -18.1942,0.0925 z"
     id="path34"
     transform="matrix(0.75144843,0,0,0.75144843,0,-10.493425)" />
  <path
     style="fill:#f9f9f9;stroke-width:0.605092"
     d="m 145.52457,665.88831 c -5.97819,-0.92725 -13.46568,-5.35053 -19.15664,-11.31691 -3.92866,-4.1188 -5.22422,-6.45797 -7.39759,-13.35662 -2.42294,-7.69084 -2.2268,-10.16203 2.58223,-32.53249 1.00633,-4.68122 1.99038,-9.4234 2.18678,-10.53818 0.19639,-1.11478 0.45446,-2.18593 0.57348,-2.38034 0.11902,-0.19441 0.3729,-1.30649 0.56419,-2.47129 0.19128,-1.1648 0.60908,-3.0078 0.92844,-4.09556 0.31937,-1.08776 0.57759,-2.11338 0.57383,-2.27917 -0.004,-0.16578 0.15454,-1.04569 0.35178,-1.95536 0.19724,-0.90965 0.47165,-2.19851 0.6098,-2.86411 0.13815,-0.6656 1.617,-7.20059 3.28634,-14.5222 1.66933,-7.32161 3.16872,-13.99275 3.33198,-14.82475 0.16325,-0.832 2.33905,-10.49834 4.83511,-21.48076 2.49606,-10.98241 4.67227,-20.64875 4.83604,-21.48075 0.16377,-0.832 1.0183,-4.64408 1.89896,-8.47129 0.88066,-3.8272 2.13469,-9.40918 2.78672,-12.40438 0.65204,-2.9952 1.58929,-7.21572 2.08279,-9.37892 0.49349,-2.16321 1.19181,-5.29456 1.55181,-6.95856 0.86316,-3.98963 1.16178,-5.32542 4.08003,-18.25073 1.36467,-6.0443 3.07703,-13.91351 3.80525,-17.48712 l 1.32404,-6.49749 -5.10504,-4.90128 c -2.80777,-2.6957 -7.13319,-6.67116 -9.61204,-8.83437 -2.47885,-2.1632 -6.02633,-5.29455 -7.88328,-6.95855 -4.21165,-3.77402 -11.34974,-10.08839 -15.72595,-13.91122 -6.03108,-5.26843 -11.05469,-9.67758 -11.73488,-10.29954 -0.36823,-0.3367 -4.34543,-3.84125 -8.83824,-7.78787 -13.595451,-11.94269 -16.47524,-14.47712 -19.67603,-17.31635 -1.688321,-1.4976 -4.660508,-4.08437 -6.604867,-5.74837 -1.944366,-1.664 -3.838085,-3.31694 -4.208268,-3.67319 -0.370183,-0.35625 -3.395975,-3.04198 -6.72398,-5.96828 -3.328004,-2.92629 -6.867791,-6.04841 -7.866193,-6.93804 -0.998401,-0.88961 -10.094681,-8.9594 -20.213954,-17.93284 C 13.44659,299.21409 7.2570266,293.11288 4.9183991,288.48008 -0.11695004,278.50511 -0.13310294,266.28493 4.876637,256.8857 c 5.286467,-9.91843 14.941839,-17.22293 24.77286,-18.74121 5.635134,-0.87028 71.197183,-7.24068 103.773243,-10.08324 1.9968,-0.17424 16.70053,-1.53303 32.67495,-3.01955 15.97442,-1.48652 30.67815,-2.84438 32.67496,-3.01749 4.52065,-0.39189 15.02044,-1.42544 17.8502,-1.75708 1.16481,-0.13652 3.75157,-0.40419 5.74838,-0.59482 8.50207,-0.81168 7.37056,0.16934 11.75796,-10.19416 2.14049,-5.05603 4.67646,-10.96267 5.6355,-13.12587 2.65358,-5.98535 2.72129,-6.14073 4.08729,-9.37892 0.70195,-1.66401 1.51882,-3.57004 1.81528,-4.23565 1.43509,-3.22204 4.5223,-10.39423 25.91546,-60.20663 32.04761,-74.620522 39.0244,-90.372366 41.19856,-93.016077 2.97553,-3.618141 9.10581,-8.541965 13.06064,-10.490277 10.3059,-5.077105 23.26424,-4.389197 32.7186,1.736905 4.91479,3.184616 10.78762,9.119534 12.63854,12.772148 1.8472,3.645258 5.01502,10.854454 18.89934,43.01033 5.81974,13.478419 11.12108,25.731531 11.78077,27.229131 0.65967,1.4976 1.60659,3.67593 2.10424,4.84073 0.49766,1.1648 1.1451,2.66241 1.43878,3.32801 0.29367,0.6656 1.67157,3.93309 3.06199,7.2611 1.39043,3.328 3.18944,7.54852 3.99781,9.37892 1.52607,3.4555 2.22417,5.09432 3.47968,8.16874 0.40772,0.9984 1.22307,2.90444 1.81188,4.23564 0.58881,1.3312 1.40569,3.23724 1.81528,4.23564 0.40959,0.99841 1.1714,2.7683 1.69292,3.9331 0.52151,1.1648 5.23352,12.1926 10.47112,24.50622 8.33502,19.59567 10.61558,24.90682 12.99103,30.25459 0.29566,0.6656 1.11669,2.57164 1.82452,4.23564 2.55342,6.00275 3.10769,7.2852 3.79201,8.77383 0.38247,0.832 0.73085,1.58454 0.77417,1.67231 0.12652,0.2563 14.79581,1.85003 26.28281,2.85546 11.1759,0.9782 15.70265,1.4001 19.66548,1.83287 3.99145,0.4359 60.75383,5.67586 65.65246,6.06065 2.496,0.19605 5.4912,0.46748 6.65601,0.60316 1.1648,0.13568 8.24437,0.80349 15.73238,1.48403 7.48801,0.68053 14.97602,1.37152 16.64003,1.53553 1.664,0.16402 11.87492,1.11895 22.69094,2.12207 33.90014,3.14402 36.91029,4.04048 46.00754,13.70138 6.76112,7.18006 9.6609,14.32406 9.6609,23.80098 0,5.41024 -1.02055,10.43329 -3.0536,15.02933 -2.20326,4.98075 -14.27877,16.43034 -55.94285,53.04304 -11.31521,9.94334 -21.38999,18.81258 -22.38839,19.70942 -0.9984,0.89683 -5.48578,4.86179 -9.97194,8.81102 -4.48617,3.94924 -8.59069,7.58887 -9.12117,8.08807 -0.53047,0.4992 -2.56577,2.26909 -4.52288,3.9331 -1.95712,1.664 -4.93973,4.25076 -6.62806,5.74837 -1.68831,1.4976 -5.07472,4.4928 -7.52536,6.65601 -2.45064,2.1632 -4.87407,4.34153 -5.38539,4.84073 -0.51132,0.4992 -1.90232,1.67847 -3.09111,2.62059 -1.18879,0.94213 -3.39053,2.84817 -4.89276,4.23565 -2.9412,2.71651 -5.65016,5.13345 -12.66142,11.29651 -4.27004,3.75347 -11.12767,9.99435 -13.46401,12.25311 -1.35104,1.30617 -1.35136,1.28637 0.13699,8.32001 0.66901,3.16161 1.46452,6.97369 1.7678,8.47129 0.70826,3.49741 4.04887,18.57635 5.16104,23.29603 0.47053,1.9968 1.71619,7.44263 2.76813,12.10184 1.05193,4.6592 2.31473,10.24118 2.80622,12.40438 0.49149,2.1632 1.14629,5.15841 1.45511,6.65601 0.30882,1.4976 0.95206,4.35666 1.42942,6.35346 1.20558,5.04299 5.96907,26.15544 6.71378,29.75644 0.14982,0.72442 2.46317,10.93535 5.1408,22.69094 2.67762,11.7556 5.00554,22.05455 5.17316,22.88655 0.16762,0.832 1.26045,5.73324 2.42853,10.89165 1.16807,5.15841 2.25278,10.05965 2.41045,10.89165 0.15767,0.832 0.42974,1.9869 0.60459,2.56645 0.17485,0.57955 0.45162,1.80486 0.61504,2.72291 0.16343,0.91806 0.93439,4.93669 1.71326,8.9303 2.08038,10.66698 2.38959,15.554 1.31131,20.72542 -2.8496,13.66678 -13.48419,24.27604 -27.24421,27.17939 -5.03755,1.0629 -14.32097,0.62512 -17.83045,-0.84077 -3.86858,-1.61596 -13.21505,-7.01623 -56.35016,-32.5586 -10.81601,-6.40472 -20.53871,-12.15236 -21.60599,-12.77262 -1.49821,-0.87069 -25.62998,-15.2475 -54.92069,-32.71969 -0.67519,-0.40276 -1.63605,-0.94734 -2.13525,-1.21019 -0.4992,-0.26284 -9.62096,-5.68209 -20.27057,-12.04276 -10.64962,-6.36068 -19.99461,-11.89433 -20.76664,-12.29701 -1.54965,-0.80826 -1.05669,-1.06113 -18.41459,9.44581 -4.57684,2.77043 -8.45445,5.03714 -8.6169,5.03714 -0.16244,0 -3.76962,2.12566 -8.01593,4.7237 -4.24632,2.59802 -9.49047,5.73521 -11.65368,6.97152 -2.1632,1.2363 -4.34153,2.50513 -4.84073,2.81962 -1.54593,0.97392 -24.99787,14.95608 -28.93717,17.25248 -4.09653,2.38806 -24.7107,14.7286 -26.01554,15.57403 -0.89286,0.57847 -2.04468,1.2592 -2.55961,1.51273 -1.16051,0.57133 -20.644,12.17287 -22.86097,13.61269 -0.88916,0.57744 -2.16123,1.32557 -2.82683,1.66255 -0.6656,0.33691 -1.61862,0.88138 -2.11782,1.20982 -3.81741,2.51174 -33.97065,19.9152 -37.81824,21.82748 -6.4644,3.21279 -13.79962,4.21525 -21.7833,2.97687 z"
     id="path36"
     transform="matrix(0.75144843,0,0,0.75144843,0,-10.493425)" />
  <path
     style="fill:#f2f2f2;stroke-width:0.605092"
     d="m 144.78013,665.91081 c -8.81085,-1.87675 -19.57742,-10.34936 -23.46131,-18.46262 -4.48022,-9.35901 -4.89829,-16.08219 -1.84367,-29.64949 0.34785,-1.545 4.51687,-20.99917 5.18684,-24.20367 0.27831,-1.33121 0.65365,-2.82881 0.83407,-3.32801 0.18042,-0.4992 0.44741,-1.58836 0.5933,-2.42037 0.38957,-2.22172 2.66949,-12.60886 5.51179,-25.1113 0.90791,-3.99361 1.86308,-8.21412 2.12261,-9.37893 0.25953,-1.1648 1.48553,-6.61062 2.72443,-12.10183 1.23891,-5.49121 2.46045,-10.93704 2.71453,-12.10184 0.25408,-1.1648 1.47904,-6.61062 2.72215,-12.10183 3.19545,-14.11545 3.14799,-13.90324 3.85675,-17.24512 0.35291,-1.664 3.75201,-16.91231 7.55356,-33.88514 3.80155,-16.97282 7.09564,-31.9675 7.3202,-33.32149 0.40509,-2.44248 0.37345,-2.49477 -4.02649,-6.65601 -3.43601,-3.2496 -27.34415,-24.47969 -41.924,-37.22792 -0.9984,-0.87298 -3.32045,-2.91927 -5.16011,-4.54733 -1.83966,-1.62805 -5.36066,-4.72999 -7.82446,-6.89319 -6.484923,-5.69373 -15.34844,-13.5166 -16.111267,-14.21966 -0.361089,-0.3328 -2.392461,-2.10269 -4.51416,-3.93309 -3.755769,-3.24013 -18.973984,-16.61451 -20.30161,-17.84188 -0.364943,-0.33738 -2.532567,-2.24717 -4.816938,-4.24397 -3.598762,-3.14574 -9.840827,-8.6568 -18.723201,-16.53054 -1.331202,-1.18004 -3.787069,-3.38924 -5.457483,-4.90933 -1.670413,-1.52009 -5.328467,-4.80599 -8.129009,-7.30199 C 13.005589,298.82815 6.8410574,292.28885 4.8842103,288.41235 -0.11033867,278.51821 -0.21586198,266.87887 4.6023655,257.32456 9.5432642,247.527 19.330613,239.8726 29.044405,238.20915 c 4.341814,-0.74351 25.224134,-2.89812 50.827709,-5.24431 9.152013,-0.83865 17.593043,-1.65293 18.757845,-1.80951 1.164801,-0.15658 8.516671,-0.84675 16.337481,-1.5337 7.82081,-0.68696 15.44496,-1.36709 16.94257,-1.51141 1.4976,-0.14433 6.12655,-0.55699 10.28656,-0.91702 4.16,-0.36003 8.24437,-0.75397 9.07637,-0.8754 0.832,-0.12144 3.41877,-0.37988 5.74837,-0.57431 7.45169,-0.62191 24.63057,-2.18876 30.25459,-2.75945 2.99521,-0.30393 7.35187,-0.72766 9.68147,-0.94161 21.66708,-1.9899 32.50346,-3.19199 32.96144,-3.65643 0.29992,-0.30413 4.33527,-9.40243 8.96746,-20.21845 4.63219,-10.81601 9.10576,-21.16308 9.94126,-22.99348 0.83551,-1.83041 5.11502,-11.76904 9.51004,-22.08585 9.847,-23.11472 9.59771,-22.53364 10.773,-25.11131 0.53108,-1.1648 1.30072,-2.9347 1.71031,-3.9331 0.40959,-0.9984 1.15162,-2.76829 1.64895,-3.93309 0.49734,-1.16481 1.19034,-2.79855 1.54,-3.63055 0.34966,-0.83201 1.23381,-2.87419 1.96477,-4.53819 2.14468,-4.88229 10.69209,-24.671869 14.85609,-34.395906 2.11544,-4.940122 4.24144,-9.841365 4.72443,-10.891648 0.48299,-1.050284 2.89605,-6.538559 5.36235,-12.196167 10.48342,-24.048571 9.97925,-23.072343 14.07104,-27.245503 7.95669,-8.114913 15.60892,-11.491638 25.9807,-11.46459 9.84591,0.02568 17.24264,3.309742 25.05867,11.125782 3.65812,3.658113 5.73079,7.152233 9.72242,16.390114 1.07851,2.496003 2.74765,6.259006 3.70922,8.362229 0.96156,2.103222 1.7483,3.922191 1.7483,4.042152 0,0.119961 0.83415,2.075076 1.85367,4.344698 1.01952,2.269623 2.08416,4.671169 2.36587,5.33677 0.28171,0.665601 1.05925,2.435495 1.72785,3.933097 0.66861,1.497602 2.35597,5.445826 3.74969,8.77383 1.39371,3.328005 3.14908,7.412375 3.90081,9.076377 0.75173,1.664002 8.22602,19.090645 16.60953,38.725875 8.38351,19.63523 15.4848,36.245 15.78065,36.9106 0.29585,0.6656 1.11223,2.57164 1.81418,4.23564 0.70194,1.664 1.52155,3.57004 1.82136,4.23564 0.29981,0.6656 4.93457,11.42111 10.29946,23.90113 5.36491,12.48001 9.96504,22.90867 10.22253,23.17479 0.54953,0.56795 8.23516,1.39695 40.28364,4.34517 12.97922,1.19399 24.68775,2.28752 26.01895,2.43006 1.3312,0.14254 4.05411,0.40808 6.05092,0.5901 1.9968,0.18202 4.85586,0.4553 6.35346,0.60731 1.4976,0.152 4.49281,0.42358 6.65601,0.60351 7.87423,0.65495 37.27747,3.33706 39.63351,3.6153 1.3312,0.15721 7.32161,0.71184 13.31202,1.23253 5.99041,0.52068 11.84467,1.06033 13.00947,1.1992 1.1648,0.13888 3.88772,0.40417 6.05092,0.58954 6.58618,0.56437 23.74949,2.16387 26.32149,2.45298 1.3312,0.14963 5.14328,0.57918 8.47129,0.95455 7.81076,0.88098 14.98189,2.67102 18.62527,4.6492 1.59109,0.86388 4.99473,3.76925 7.56364,6.45636 7.51071,7.85624 10.41914,14.71806 10.41914,24.58148 0,6.02512 -1.70382,13.57229 -3.72373,16.49446 -4.16903,6.03126 -17.35252,18.40032 -51.01317,47.8617 -2.31648,2.02748 -6.9628,6.13695 -10.32511,9.13215 -5.38302,4.79528 -11.77223,10.43102 -15.65812,13.81162 -0.69839,0.60757 -2.08668,1.8371 -3.08508,2.73229 -1.47992,1.32692 -9.89574,8.7305 -24.80876,21.82481 -29.3745,25.79213 -47.93411,42.327 -49.82138,44.38616 l -1.41404,1.54281 1.25607,6.15866 c 1.0151,4.97714 17.56514,78.97819 22.53293,100.75265 0.68335,2.99521 1.60998,7.07958 2.05917,9.07638 0.44921,1.9968 1.5018,6.62575 2.33911,10.28656 1.93478,8.45917 4.09912,18.08828 6.39229,28.43931 0.29492,1.3312 0.82756,3.71375 1.18365,5.29455 0.3561,1.58081 0.9078,4.03143 1.22601,5.44583 0.31821,1.4144 0.99215,4.34153 1.49764,6.50474 1.76415,7.54956 3.98152,19.39331 4.70875,25.15112 0.6304,4.99122 0.59453,6.47019 -0.25676,10.58711 -2.60545,12.60025 -11.1117,22.26647 -23.47076,26.67142 -3.31739,1.18235 -5.11715,1.40115 -11.49674,1.39788 l -7.56365,-0.006 -5.74837,-2.86112 c -3.16161,-1.57354 -6.56525,-3.34271 -7.56365,-3.9314 -0.9984,-0.58869 -3.17673,-1.86284 -4.84073,-2.83141 -6.9064,-4.0201 -22.79187,-13.41119 -28.30171,-16.73133 -3.25233,-1.95977 -6.05838,-3.5632 -6.23568,-3.5632 -0.17729,0 -2.41755,-1.31287 -4.97833,-2.91751 -2.56079,-1.60464 -8.05963,-4.9197 -12.21963,-7.36687 -4.16001,-2.44718 -12.1926,-7.21492 -17.85021,-10.59505 -5.65761,-3.38013 -16.9577,-10.10187 -25.11131,-14.9372 -8.15361,-4.83533 -24.21879,-14.37525 -35.70041,-21.19983 -34.32548,-20.40278 -30.95984,-18.61386 -33.01807,-17.54983 -2.53385,1.30993 -95.41322,56.42079 -123.09561,73.03994 -5.15841,3.09686 -10.60886,6.31426 -12.11212,7.14977 -1.50326,0.83557 -4.99496,2.90728 -7.75933,4.60384 -2.76438,1.69662 -5.14771,3.08476 -5.2963,3.08476 -0.14858,0 -1.42198,0.73639 -2.82977,1.63647 -1.40778,0.90007 -3.37649,2.08799 -4.37489,2.63977 -0.9984,0.55185 -5.49121,3.08803 -9.98401,5.63595 -4.49281,2.54792 -9.5302,5.05572 -11.1942,5.57277 -3.60033,1.11888 -14.0794,1.62824 -17.68701,0.85984 z"
     id="path38"
     transform="matrix(0.75144843,0,0,0.75144843,0,-10.493425)" />
</svg>
