<?xml version="1.0" encoding="UTF-8" standalone="no"?>
<svg
   xmlns:dc="http://purl.org/dc/elements/1.1/"
   xmlns:cc="http://creativecommons.org/ns#"
   xmlns:rdf="http://www.w3.org/1999/02/22-rdf-syntax-ns#"
   xmlns:svg="http://www.w3.org/2000/svg"
   xmlns="http://www.w3.org/2000/svg"
   xmlns:sodipodi="http://sodipodi.sourceforge.net/DTD/sodipodi-0.dtd"
   xmlns:inkscape="http://www.inkscape.org/namespaces/inkscape"
   aria-hidden="true"
   focusable="false"
   data-prefix="fas"
   data-icon="money-bill-wave"
   class="svg-inline--fa fa-money-bill-wave fa-w-20"
   role="img"
   viewBox="0 0 640 512"
   version="1.1"
   id="svg902"
   sodipodi:docname="money-bill-wave-solid.svg"
   inkscape:version="1.0.1 (3bc2e813f5, 2020-09-07)">
  <metadata
     id="metadata908">
    <rdf:RDF>
      <cc:Work
         rdf:about="">
        <dc:format>image/svg+xml</dc:format>
        <dc:type
           rdf:resource="http://purl.org/dc/dcmitype/StillImage" />
      </cc:Work>
    </rdf:RDF>
  </metadata>
  <defs
     id="defs906" />
  <sodipodi:namedview
     pagecolor="#ffffff"
     bordercolor="#666666"
     borderopacity="1"
     objecttolerance="10"
     gridtolerance="10"
     guidetolerance="10"
     inkscape:pageopacity="0"
     inkscape:pageshadow="2"
     inkscape:window-width="3440"
     inkscape:window-height="1346"
     id="namedview904"
     showgrid="false"
     inkscape:zoom="1.96875"
     inkscape:cx="320"
     inkscape:cy="253.71429"
     inkscape:window-x="3829"
     inkscape:window-y="181"
     inkscape:window-maximized="1"
     inkscape:current-layer="svg902"
     inkscape:document-rotation="0" />
  <path
     fill="currentColor"
     d="M621.16 54.46C582.37 38.19 543.55 32 504.75 32c-123.17-.01-246.33 62.34-369.5 62.34-30.89 0-61.76-3.92-92.65-13.72-3.47-1.1-6.95-1.62-10.35-1.62C15.04 79 0 92.32 0 110.81v317.26c0 12.63 7.23 24.6 18.84 29.46C57.63 473.81 96.45 480 135.25 480c123.17 0 246.34-62.35 369.51-62.35 30.89 0 61.76 3.92 92.65 13.72 3.47 1.1 6.95 1.62 10.35 1.62 17.21 0 32.25-13.32 32.25-31.81V83.93c-.01-12.64-7.24-24.6-18.85-29.47zM48 132.22c20.12 5.04 41.12 7.57 62.72 8.93C104.84 170.54 79 192.69 48 192.69v-60.47zm0 285v-47.78c34.37 0 62.18 27.27 63.71 61.4-22.53-1.81-43.59-6.31-63.71-13.62zM320 352c-44.19 0-80-42.99-80-96 0-53.02 35.82-96 80-96s80 42.98 80 96c0 53.03-35.83 96-80 96zm272 27.78c-17.52-4.39-35.71-6.85-54.32-8.44 5.87-26.08 27.5-45.88 54.32-49.28v57.72zm0-236.11c-30.89-3.91-54.86-29.7-55.81-61.55 19.54 2.17 38.09 6.23 55.81 12.66v48.89z"
     id="path900" />
  <path
     style="fill:#0065fc;stroke-width:0.507937"
     d="M 115.55556,479.20353 C 84.060678,477.33555 54.000452,470.91484 26.213432,460.12052 16.468756,456.33505 13.500684,454.65166 9.5484973,450.66876 5.7782248,446.8692 2.7105516,441.35187 1.1454514,435.55556 0.3041535,432.43983 0.25396825,423.08965 0.25396825,269.46032 c 0,-153.81178 0.0493288,-162.97581 0.89406855,-166.09524 2.535364,-9.36251 8.3347116,-16.468425 16.7506252,-20.524465 9.308683,-4.486308 15.721659,-4.519004 30.863243,-0.157349 58.739935,16.920513 119.369105,15.839528 207.217585,-3.694578 13.73476,-3.054079 32.90623,-7.714155 72.07565,-17.519677 51.74958,-12.95479 72.94297,-17.672538 99.11946,-22.064462 74.28174,-12.463078 132.42083,-8.576506 186.61197,12.474928 9.65038,3.748841 12.70161,5.46876 16.62364,9.370367 3.73166,3.712194 6.8675,9.354817 8.44434,15.1946 0.8413,3.115728 0.89148,12.46591 0.89148,166.095236 0,153.58208 -0.0503,162.98047 -0.89082,166.09524 -3.12528,11.58309 -11.97932,20.22579 -23.73445,23.16794 -5.57811,1.39612 -12.97747,0.77502 -21.34298,-1.79153 -42.00127,-12.88604 -89.14337,-15.81689 -143.2381,-8.90519 -35.74007,4.56651 -58.8355,9.46884 -138.66666,29.43395 -34.46166,8.61857 -40.18217,10.00422 -56.38096,13.65692 -54.29314,12.24268 -101.38685,17.29292 -139.9365,15.00652 z m -3.80953,-50.48711 c 0,-1.24723 -0.43695,-4.52176 -0.971,-7.27673 -5.48808,-28.311 -28.367934,-49.20833 -56.831995,-51.90756 -2.989303,-0.28347 -5.606527,-0.5156 -5.816051,-0.51583 -0.209524,-2.3e-4 -0.380952,10.93227 -0.380952,24.29445 v 24.29487 l 7.492063,2.3658 c 14.298718,4.51516 27.336564,7.46995 41.777778,9.46816 8.182937,1.13226 10.043527,1.34454 12.825397,1.46326 l 1.90476,0.0813 z m 480.50794,-77.77694 v -29.251 l -2.15873,0.34286 c -24.25214,3.85183 -44.29831,21.2751 -51.44848,44.71689 -0.73514,2.41011 -1.24511,4.47352 -1.13326,4.58537 0.11185,0.11183 3.73135,0.56196 8.04333,1.00028 15.03649,1.52846 38.02306,5.30395 44.41142,7.29448 0.8381,0.26114 1.69524,0.49444 1.90477,0.51846 0.20952,0.024 0.38095,-13.11929 0.38095,-29.20734 z m -259.30159,0.0545 c 2.23492,-0.46249 6.38581,-1.61212 9.22419,-2.55473 25.70347,-8.536 46.75658,-33.33536 54.52359,-64.22563 2.53912,-10.09838 3.2712,-16.41246 3.2712,-28.21363 0,-11.80117 -0.73208,-18.11525 -3.2712,-28.21363 -7.76687,-30.88971 -28.80573,-55.67339 -54.52359,-64.2285 -8.63582,-2.87274 -12.79171,-3.53524 -22.17657,-3.53524 -9.38486,0 -13.54075,0.6625 -22.17657,3.53524 -25.71882,8.55543 -46.80405,33.39723 -54.51593,64.2285 -2.65191,10.60207 -3.27642,15.97982 -3.27642,28.21363 0,12.23381 0.62451,17.61156 3.27642,28.21363 9.09464,36.3594 35.98195,63.12382 67.80361,67.4937 4.97232,0.68282 16.99137,0.29027 21.84127,-0.71334 z M 58.727116,191.98339 c 21.956587,-3.78935 40.206568,-18.37903 48.597144,-38.85026 1.8661,-4.55289 3.80489,-11.44313 3.34836,-11.89967 -0.14913,-0.14912 -4.41509,-0.62037 -9.47991,-1.0472 -17.069271,-1.43851 -33.609106,-3.81233 -46.131245,-6.62081 -3.25123,-0.7292 -6.227252,-1.44704 -6.613381,-1.59521 -0.592647,-0.22742 -0.702052,4.48838 -0.702052,30.26113 v 30.53053 h 3.235052 c 1.779282,0 5.264996,-0.35033 7.746032,-0.77851 z M 592.25397,119.19719 V 94.394377 l -7.49207,-2.338331 c -9.58902,-2.992813 -13.72048,-4.109542 -21.02435,-5.68286 -7.02578,-1.513412 -19.63129,-3.637359 -24.43596,-4.117303 -4.04318,-0.403877 -3.86576,-0.878911 -2.65986,7.122184 1.08043,7.168254 2.50123,11.931873 5.35847,17.965323 3.35437,7.08336 6.47701,11.65845 11.63932,17.05338 7.44294,7.77827 16.50798,13.57176 26.23182,16.7648 3.56693,1.17128 9.75274,2.64073 11.74771,2.7907 0.49991,0.0376 0.63492,-5.226 0.63492,-24.75508 z"
     id="path910" />
</svg>
